<?xml version="1.0" encoding="UTF-8" standalone="no"?>
<svg
   aria-hidden="true"
   focusable="false"
   version="1.1"
   viewBox="0 0 36.2 28"
   id="svg15"
   sodipodi:docname="bitbucket-enhancements.svg"
   inkscape:export-filename="bitbucket-enhancements128.png"
   inkscape:export-xdpi="339.27051"
   inkscape:export-ydpi="339.27051"
   inkscape:version="1.2.2 (b0a8486541, 2022-12-01)"
   xmlns:inkscape="http://www.inkscape.org/namespaces/inkscape"
   xmlns:sodipodi="http://sodipodi.sourceforge.net/DTD/sodipodi-0.dtd"
   xmlns="http://www.w3.org/2000/svg"
   xmlns:svg="http://www.w3.org/2000/svg">
  <sodipodi:namedview
     id="namedview17"
     pagecolor="#ffffff"
     bordercolor="#666666"
     borderopacity="1.0"
     inkscape:showpageshadow="2"
     inkscape:pageopacity="0.0"
     inkscape:pagecheckerboard="0"
     inkscape:deskcolor="#d1d1d1"
     showgrid="false"
     inkscape:zoom="30.285714"
     inkscape:cx="11.919811"
     inkscape:cy="14.016509"
     inkscape:window-width="1920"
     inkscape:window-height="1061"
     inkscape:window-x="1920"
     inkscape:window-y="0"
     inkscape:window-maximized="1"
     inkscape:current-layer="svg15" />
  <defs
     id="defs7">
    <linearGradient
       id="a"
       x1="19.5"
       x2="10.6"
       y1="19.4"
       y2="27.4"
       gradientTransform="matrix(1.16 0 0 .864 0 -.247)"
       gradientUnits="userSpaceOnUse">
      <stop
         stop-color="#0052CC"
         offset="0"
         id="stop2" />
      <stop
         stop-color="#2684FF"
         offset="1"
         id="stop4" />
    </linearGradient>
  </defs>
  <path
     d="m22.4 12.9h-7.04l-1.18 6.93h-4.88l-5.76 6.88c0.182 0.159 0.415 0.247 0.656 0.249h15.3c0.372 0.0048 0.691-0.265 0.75-0.634z"
     fill="url(#a)"
     id="path9" />
  <path
     d="m0.76 5.75c-0.222-0.00287-0.433 0.0929-0.578 0.262-0.145 0.169-0.208 0.393-0.172 0.613l3.18 19.4c0.0391 0.237 0.16 0.452 0.341 0.607 0.182 0.159 0.415 0.247 0.656 0.249l5.91-7.12h-0.829l-1.3-6.93h14.4l1.01-6.24c0.0376-0.219-0.0229-0.444-0.165-0.614-0.142-0.17-0.352-0.268-0.573-0.269z"
     fill="#2684ff"
     id="path11" />
  <path
     d="m35.7 25.4-14.7-14.7 3.2-0.994c0.222-0.0685 0.386-0.258 0.423-0.488 0.0368-0.23-0.0606-0.461-0.251-0.595l-3.25-2.3c-0.562-0.396-0.891-1.04-0.883-1.73l0.0524-3.98c0.0029-0.232-0.128-0.446-0.334-0.552-0.207-0.106-0.457-0.0849-0.643 0.0551l-3.19 2.38c-0.549 0.41-1.27 0.523-1.91 0.303l-3.77-1.28c-0.22-0.0753-0.465-0.0184-0.63 0.146-0.164 0.164-0.22 0.409-0.147 0.629l1.28 3.77c0.218 0.649 0.105 1.36-0.305 1.91l-2.38 3.19c-0.138 0.187-0.161 0.437-0.0559 0.643 0.106 0.208 0.321 0.337 0.555 0.334l3.98-0.0514c0.685-0.0088 1.33 0.32 1.73 0.88l2.3 3.25c0.136 0.19 0.366 0.287 0.596 0.251 0.23-0.0362 0.419-0.2 0.488-0.422l0.995-3.19 14.7 14.7c0.3 0.299 0.692 0.449 1.08 0.449 0.394 0 0.786-0.15 1.08-0.449 0.599-0.598 0.599-1.57-7e-5 -2.17z"
     stroke-width=".0573"
     id="path13" />
  <path
     style="fill:#ffcc00;stroke:#000000;stroke-width:0.165094;stroke-linejoin:round;paint-order:stroke markers fill"
     d="m 34.34741,27.965006 c -0.07744,-0.01527 -0.233452,-0.06801 -0.346698,-0.117199 -0.195087,-0.08474 -0.598192,-0.481446 -7.67513,-7.553247 -4.108076,-4.105093 -7.474537,-7.457035 -7.481026,-7.448759 -0.0065,0.0083 -0.237931,0.743114 -0.514317,1.632973 -0.28833,0.928314 -0.535921,1.668501 -0.580885,1.736584 -0.192167,0.290975 -0.662001,0.321244 -0.906855,0.05842 -0.05791,-0.06216 -0.891591,-1.234303 -2.028193,-2.851612 -0.473618,-0.673927 -0.722169,-0.925782 -1.092907,-1.107434 -0.497495,-0.24376 -0.417291,-0.237628 -2.939828,-0.224782 L 8.5308198,12.10141 8.4056838,12.00619 C 8.1893946,11.841604 8.1022851,11.548416 8.2006665,11.316156 8.2254199,11.257719 8.806579,10.459552 9.4921311,9.5424528 10.287456,8.478505 10.778747,7.7913457 10.849543,7.6438679 11.022049,7.284513 11.071556,7.0414522 11.054583,6.6372052 11.040065,6.2914131 11.038091,6.2844491 10.535119,4.8042453 9.6341341,2.1527215 9.6344419,2.1537019 9.6584626,2.0115248 9.6855899,1.8509596 9.7918311,1.6911643 9.9360932,1.5939461 10.154542,1.4467337 10.236481,1.4656926 12.056096,2.0844679 c 2.287719,0.7779579 2.314975,0.7866178 2.582036,0.8203662 0.449476,0.0568 0.970853,-0.058402 1.33786,-0.2956099 0.108298,-0.069997 0.922686,-0.6692099 1.809749,-1.3315852 1.08933,-0.81340798 1.65787,-1.21775769 1.75156,-1.24572179 0.273651,-0.08167752 0.611846,0.10381493 0.705243,0.38681034 0.03137,0.0950492 0.03581,0.41890853 0.01895,1.37985855 -0.01212,0.6906125 -0.02237,1.6791262 -0.02278,2.1966969 -8.19e-4,1.047165 0.0144,1.157982 0.215766,1.5705573 0.186872,0.3828852 0.414509,0.5959424 1.32575,1.2408365 0.451653,0.3196399 1.214938,0.8597995 1.696188,1.2003551 0.48125,0.3405556 0.910347,0.650756 0.953548,0.6893346 0.27036,0.2414303 0.205933,0.7567828 -0.116584,0.9325512 -0.06988,0.038085 -0.840266,0.2894837 -1.711964,0.5586643 -0.871698,0.26918 -1.591677,0.49475 -1.599953,0.501265 -0.0083,0.0065 3.343665,3.372999 7.448759,7.481075 6.965239,6.970298 7.469544,7.482463 7.549698,7.667342 0.186211,0.429509 0.18228,0.886206 -0.01112,1.291431 -0.292411,0.612691 -0.98521,0.965681 -1.641392,0.836311 z"
     id="path511" />
</svg>
